<svg version="1" xmlns="http://www.w3.org/2000/svg" width="682.667" height="682.667" viewBox="0 0 512.000000 512.000000"><path d="M240.8.5c-.2.2-3 .6-6.3 1-41.5 4.7-83.3 26.6-110.4 57.6-13.4 15.4-20.4 25.8-28.2 41.9-6.3 13.1-13.1 33.9-14.6 45-.3 1.9-.8 5.3-1.2 7.6-.9 5-1.5 16.3-1.4 27.4.3 36.4 29.4 105 79.7 187.8 6.1 10.1 11.6 19.1 12.1 20.1 8.9 15 49.7 76.2 68.1 102 7.6 10.6 14.8 19.8 16.1 20.4 3.1 1.4 3.3 1.2 19.4-21.3 35.6-50.1 78.5-117.2 101.9-159.5 1.8-3.3 4.9-8.9 6.9-12.5 6.6-11.7 23.8-47.2 29.6-61 9.8-23.4 18-49.9 20.1-64.5 2.8-21.1-1.1-51.4-9.8-75.5C400.9 56.4 347 12.4 282 2 275.5.9 241.7-.3 240.8.5zm41.7 26c3.9.8 8.3 1.8 9.8 2 12.6 2.3 34.8 12.4 50.2 22.9 11.7 7.9 30.2 26.4 38.1 38.1 10.3 15.1 20.3 36.9 22.8 49.7.2 1.3.9 4.5 1.5 7.3.6 2.7 1.3 6.3 1.7 8 1.3 6.6 1.2 34.2-.2 43.5-1.6 10.5-7.1 31.7-8.5 32.6-.5.3-.9 1.2-.9 2 0 2.7-9.9 21.4-16.2 30.7-8.1 11.9-26.6 30.4-38.3 38.4-27.8 18.8-55.8 27.3-89 26.8-29-.4-50.6-6.4-76-21.2-11.8-6.8-18.5-12.2-31-24.7-20.8-21-37.1-52.3-41-78.9-.3-1.7-.9-5.9-1.4-9.2-1.5-9.9-.6-35.6 1.7-47 3.3-15.9 10.5-35.5 17.5-47 16-26.4 38.4-47.5 64.3-60.4 15.5-7.7 34.2-13.4 48.4-14.7 3.6-.4 6.7-.8 6.9-1.1 1.2-1 33.3.8 39.6 2.2z"/><path d="M126.7 130.8c-1.5 1.7-1.7 5.7-1.7 36.5v34.6l2.2 1.5c2 1.4 8.4 1.6 50.1 1.6 52.5 0 50.3.2 56.3-6.2 3.5-3.8 9.8-12.8 8.9-12.8-.6 0 .3-1.1 4.9-6.1 2.3-2.5 3.8-3.2 7.2-3.4 2.4-.2 4.4.1 4.4.6s.6.9 1.3.9c1.4 0 7.2 7.5 9.7 12.5.8 1.6 4.1 5.5 7.3 8.7l5.8 5.8h49c47.6 0 49-.1 50.9-2 1.9-1.9 2-3.3 2-36.3 0-32-.1-34.5-1.8-36-1.7-1.6-12.1-1.7-128.4-1.7-121.3 0-126.6.1-128.1 1.8zm87.8 16.6c.8.3 1.5.1 1.5-.4 0-.6.9-.1 2 1s2.4 2 2.9 2c1.8 0 5.7 4.4 7.6 8.5 1.8 4 2.6 12.3 1.2 13.2-.4.2-.5.9-.2 1.4.4.5-.6 2.6-2.2 4.6-3.1 4.4-6.3 7.7-6.3 6.7 0-.3-.6-.2-1.3.4-2.4 2.1-7.4 2.4-39.3 2.4-21.9 0-32.8-.4-34.3-1.1-3-1.6-3.6-5.4-3.5-20.6.1-10.8.5-13.9 1.8-16 .9-1.4 2-2.4 2.4-2.1.5.3 1.3.2 1.9-.2 1.3-.8 63.6-.7 65.8.2zm150.1 1.1c1.5 1 2.3 2.2 2 3.1-.3.8-.2 1.4.2 1.4.7 0 .8 27.2.1 30-1.1 4.1-2.8 4.3-36.9 4.3-23.6 0-34.1-.4-37.8-1.3-2.8-.8-4.9-1.7-4.7-2 .2-.4-.9-1.7-2.6-2.9-1.7-1.3-2.8-2.5-2.5-2.8.2-.3-.4-2-1.5-3.9-1.3-2.3-1.5-3.4-.6-3.4s.9-.2-.1-.9c-1.5-.9-.7-10.2 1-11.2.5-.3.8-.8.6-1.1-.6-.9 3.7-5.9 6.7-7.8 1.7-1 4.3-2.1 5.9-2.4 1.6-.3 3-.6 3.1-.8.2-.2 14.8-.2 32.4-.2 28.3.2 32.4.4 34.7 1.9z"/></svg>